<svg enable-background="new 0 0 1083.284 1598.31" height="1598.31" viewBox="0 0 1083.284 1598.31" width="1083.284" xmlns="http://www.w3.org/2000/svg"><path d="m85.994 1280.441 11.825 17.006 3.855-2.685v-25.241z" fill="#f5f3f4"/><path d="m997.29 1137.566-12.013-16.884-3.967 2.823v25.42z" fill="#f5f3f4"/><path d="m557.163 939.523c0 8.655-7.018 15.672-15.683 15.672-8.641 0-15.658-7.017-15.658-15.672 0-8.651 7.017-15.665 15.658-15.665 8.665 0 15.683 7.014 15.683 15.665z" fill="#c9c6c5"/><path d="m974.083 960.322h-872.409v516.054.284h879.636v-516.338z" fill="#8bc3cd"/><path d="m101.83 960.322h439.812v516.338h-439.812z" fill="none"/><path d="m541.642 960.322h439.825v516.338h-439.825z" fill="none"/><path d="m399.067 1580.376c-8.667 0-15.683-7.003-15.683-15.659 0-8.65 7.017-15.673 15.683-15.673h142.574v-17.914h-541.629c0 .13-.012.271-.012.402 0 36.883 18.892 66.777 42.174 66.777h499.468v-17.934h-142.575z" fill="#195379"/><path d="m541.642 1531.13v17.914h142.588c8.653 0 15.67 7.022 15.67 15.673 0 8.656-7.017 15.659-15.67 15.659h-142.588v17.934h499.492c23.282 0 42.15-29.895 42.15-66.777 0-.131 0-.272 0-.402h-541.642z" fill="#173652"/><path d="m383.384 1564.717c0 8.656 7.017 15.659 15.683 15.659h142.574v-31.332h-142.574c-8.666 0-15.683 7.022-15.683 15.673z" fill="#fff"/><path d="m684.23 1580.376c8.653 0 15.67-7.003 15.67-15.659 0-8.65-7.017-15.673-15.67-15.673h-142.588v31.332z" fill="#e7f4f8"/><path d="m1028.688 1455.833v-474.677c0-34.338-25.155-62.163-56.196-62.163h-430.85v41.329h439.825v516.338h-439.825v41.324h430.85c31.041 0 56.196-27.837 56.196-62.151z" fill="#173652"/><path d="m101.83 1476.66v-516.338h439.812v-41.329h-430.848c-31.032 0-56.185 27.825-56.185 62.163v474.677c0 34.314 25.153 62.151 56.185 62.151h430.847v-41.324z" fill="#195379"/><path d="m597.028 765.182h-51.529-1.752-51.531s58.341 139.376-50.224 704.963l82.228 2.318 33.181 1.253 83.891 3.756c-108.566-565.587-44.264-712.29-44.264-712.29z" fill="#d6ecf0"/><path d="m557.652 739.324-19.202 2.505v-2.967l-17.738-3.972s29.376 619.771-44.611 714.658l3.426 20.562 53.977 5.14 9.824-2.539 52.003.826 11.853-2.856c-73.988-94.887-49.532-731.357-49.532-731.357z" fill="#fff"/><path d="m627.364 666.273c0 60.304-85.429 187.911-85.429 187.911s-85.428-127.607-85.428-187.911c0-60.303 38.247-76.86 85.428-76.86 47.182 0 85.429 16.557 85.429 76.86z" fill="#ee7a00"/><path d="m600.898 654.348c0 41.622-58.963 144.066-58.963 144.066s-58.962-102.444-58.962-144.066 26.398-53.049 58.962-53.049c32.565 0 58.963 11.428 58.963 53.049z" fill="#f0b600"/><path d="m576.089 634.418c0 24.107-34.154 102.966-34.154 102.966s-34.153-78.859-34.153-102.966c0-24.109 15.291-30.729 34.153-30.729 18.863.001 34.154 6.621 34.154 30.729z" fill="#facf66"/><path d="m472.242 450.5s-117.635 61.758-117.635 195.567c0 0 7.353 14.705 19.116-2.941 11.764-17.644 22.057-66.168 97.049-66.168z" fill="#e52c4f"/><path d="m611.042 450.5s117.636 61.758 117.636 195.567c0 0-7.353 14.705-19.116-2.941-11.764-17.644-22.057-66.168-97.049-66.168z" fill="#be2e3e"/><path d="m672.25 320.48c0-54.785-9.257-106.357-23.043-151.459h-107.565v45.77c39.795 0 72.056 32.261 72.056 72.055s-32.261 72.056-72.056 72.056v231.573h70.395c36.213-56.968 60.213-156.604 60.213-269.995z" fill="#173652"/><path d="m469.587 286.846c0-39.794 32.259-72.055 72.054-72.055v-45.77h-107.563c-13.788 45.102-23.043 96.674-23.043 151.459 0 113.39 23.999 213.026 60.212 269.994h70.395v-231.573c-39.795 0-72.055-32.261-72.055-72.055z" fill="#195379"/><path d="m472.25 590.69c-1.818 0-3.293 1.475-3.293 3.293v15.365c0 1.818 1.475 3.292 3.293 3.292h69.392v-21.95z" fill="#ebc81f"/><path d="m610.969 590.69h-69.328v21.95h69.328c1.817 0 3.293-1.474 3.293-3.292v-15.365c0-1.817-1.475-3.293-3.293-3.293z" fill="#d2b10e"/><path d="m591.012 286.846c0 27.267-22.104 49.372-49.371 49.372v22.684c39.795 0 72.056-32.261 72.056-72.056 0-39.794-32.261-72.055-72.056-72.055v22.684c27.268 0 49.371 22.105 49.371 49.371z" fill="#d2b10e"/><path d="m469.587 286.846c0 39.794 32.259 72.056 72.054 72.056v-22.684c-27.267 0-49.372-22.104-49.372-49.372 0-27.266 22.104-49.371 49.372-49.371v-22.684c-39.794 0-72.054 32.261-72.054 72.055z" fill="#ebc81f"/><path d="m591.012 286.846c0-27.266-22.104-49.371-49.371-49.371v98.742c27.268 0 49.371-22.104 49.371-49.371z" fill="#92d0d4"/><path d="m492.27 286.846c0 27.267 22.104 49.372 49.372 49.372v-98.742c-27.267-.001-49.372 22.104-49.372 49.37z" fill="#b5dfe7"/><path d="m541.642 0v169.021h107.565c-30.756-100.612-84.072-169.021-107.565-169.021z" fill="#be2e3e"/><path d="m541.642 0c-23.492 0-76.808 68.409-107.564 169.021h107.564z" fill="#e52c4f"/><path d="m546.17 487.113c-.356-.113-.736-.174-1.132-.174h-.099-3.298v165.044h3.708.099c2.071 0 3.751-1.68 3.751-3.751v-5.01l.143-7.242 10.412-132.719c0-13.452-11.29-15.567-13.584-16.148z" fill="#be2e3e"/><path d="m537.934 486.939h-.099c-.396 0-.775.061-1.133.174-.657.167-1.396.456-2.115.88-4.101 1.33-11.059 4.902-11.059 15.462l10.423 132.851.132 6.72v5.011c0 1.575.97 2.919 2.344 3.476.539.299 1.158.47 1.817.47h.099 3.298v-165.044z" fill="#e52c4f"/><path d="m874.334 1249.528c-14.177-4.164-29.729-4.504-45.505-.197-49.829 13.604-82.981 68.296-74.042 122.153.234 1.423.514 2.821.801 4.212l-.291.079c-23.26 6.35-42.267 23.19-53.467 44.665-8.505 16.306-12.502 35.289-10.455 54.377l95.107-25.962 195.944-53.496v-250.294c-2.727.555-5.465 1.2-8.199 1.946-48.303 13.19-85.483 53.768-99.893 102.517z" fill="#d6ecf0"/><path d="m824.7 1358.703c-13.189-7.858-28.346-12.345-44.473-12.345-50.95 0-92.248 44.643-92.248 99.706 0 .243 0 .48.005.721 10.146 8.5 19.177 18.406 26.88 29.343h267.563v-183.004c-13.568-5.189-28.171-8.011-43.379-8.011-49.386 0-92.34 29.759-114.348 73.59z" fill="#fff"/><path d="m687.984 1446.785c-13.245-11.09-28.389-19.79-44.986-25.265-47.827-15.776-95.207-.681-125.034 34.738-11.248-11.827-25.053-21.012-40.675-26.165-8.025-2.65-16.034-4.064-23.866-4.359 10.963 13.68 17.958 31.176 19.052 50.394h158.894 83.495c-7.703-10.937-16.735-20.843-26.88-29.343z" fill="#d6ecf0"/><path d="m453.423 1425.734c-14.44-18.017-35.762-29.41-59.547-29.41h-.298c.056-1.44.101-2.879.101-4.332 0-55.065-41.302-99.705-92.253-99.705-16.127 0-31.281 4.483-44.472 12.345-22.006-43.834-64.96-73.595-114.344-73.595-14.605 0-28.648 2.602-41.752 7.401v237.689h274.384 97.234c-1.096-19.217-8.09-36.713-19.053-50.393z" fill="#fff"/><path d="m363.195 1449.457c-17.132-13.59-39.872-18.812-63.093-12.224l-.293.079c-.188-1.415-.387-2.836-.631-4.256-9.27-53.765-57.111-85.915-106.861-71.807-15.747 4.467-29.79 13.043-41.344 24.371-13.379-17.009-30.644-29.82-50.116-37.313v127.819h283.397c-5.136-10.737-12.375-19.781-21.059-26.669z" fill="#d6ecf0"/></svg>